<?xml version="1.0" encoding="UTF-8"?>
<svg version="1.1" viewBox="0 0 800 800" xmlns="http://www.w3.org/2000/svg">
	<g transform="translate(0 -252.36)">
		<path d="m652.22 252.36a117.44 117.44 0 0 0 -117.43 117.5 117.44 117.44 0 0 0 1.439 17.823l-307.45 177.48a117.44 117.44 0 0 0 -78.492 -30.231 117.44 117.44 0 0 0 -117.43 117.43 117.44 117.44 0 0 0 117.43 117.43 117.44 117.44 0 0 0 80.617 -32.082l305.81 176.59a117.44 117.44 0 0 0 -1.9199 20.634 117.44 117.44 0 0 0 117.43 117.43 117.44 117.44 0 0 0 117.43 -117.43 117.44 117.44 0 0 0 -117.43 -117.5 117.44 117.44 0 0 0 -83.016 34.55l-303.96-175.49a117.44 117.44 0 0 0 2.5376 -24.13 117.44 117.44 0 0 0 -3.2887 -26.735l302.79-174.74a117.44 117.44 0 0 0 84.936 36.401 117.44 117.44 0 0 0 117.43 -117.43 117.44 117.44 0 0 0 -117.43 -117.5z" fill="#000000" />
	</g>
</svg>
